0
SECTION
2
HEADER
9
$INSUNITS
70
4
9
$ACADVER
1
AC1014
9
$HANDSEED
5
FFFF
0
ENDSEC
0
SECTION
2
TABLES
0
TABLE
2
VPORT
5
8
100
AcDbSymbolTable
0
ENDTAB
0
TABLE
2
LTYPE
5
5
100
AcDbSymbolTable
0
LTYPE
5
14
100
AcDbSymbolTableRecord
100
AcDbLinetypeTableRecord
2
BYBLOCK
70
0
0
LTYPE
5
15
100
AcDbSymbolTableRecord
100
AcDbLinetypeTableRecord
2
BYLAYER
70
0
0
LTYPE
5
16
100
AcDbSymbolTableRecord
100
AcDbLinetypeTableRecord
2
DASHED
70
0
3
Dashed __ __ __ __ __ __ __ __ __ __ __ __ __ _
72
65
73
2
40
0.75
49
0.5
74
0
49
-0.25
74
0
0
ENDTAB
0
TABLE
2
LAYER
5
2
100
AcDbSymbolTable
70
2
0
LAYER
5
50
100
AcDbSymbolTableRecord
100
AcDbLayerTableRecord
2
0
70
0
62
7
6
CONTINUOUS
0
ENDTAB
0
TABLE
2
STYLE
5
3
100
AcDbSymbolTable
70
1
0
STYLE
5
11
100
AcDbSymbolTableRecord
100
AcDbTextStyleTableRecord
2
STANDARD
70
0
0
ENDTAB
0
TABLE
2
VIEW
5
6
100
AcDbSymbolTable
70
0
0
ENDTAB
0
TABLE
2
UCS
5
7
100
AcDbSymbolTable
70
0
0
ENDTAB
0
TABLE
2
APPID
5
9
100
AcDbSymbolTable
70
2
0
APPID
5
12
100
AcDbSymbolTableRecord
100
AcDbRegAppTableRecord
2
ACAD
70
0
0
ENDTAB
0
TABLE
2
DIMSTYLE
5
A
100
AcDbSymbolTable
70
1
0
ENDTAB
0
TABLE
2
BLOCK_RECORD
5
1
100
AcDbSymbolTable
70
1
0
BLOCK_RECORD
5
1F
100
AcDbSymbolTableRecord
100
AcDbBlockTableRecord
2
*MODEL_SPACE
0
BLOCK_RECORD
5
1B
100
AcDbSymbolTableRecord
100
AcDbBlockTableRecord
2
*PAPER_SPACE
0
ENDTAB
0
ENDSEC
0
SECTION
2
BLOCKS
0
BLOCK
5
20
100
AcDbEntity
100
AcDbBlockBegin
2
*MODEL_SPACE
0
ENDBLK
5
21
100
AcDbEntity
100
AcDbBlockEnd
0
BLOCK
5
1C
100
AcDbEntity
100
AcDbBlockBegin
2
*PAPER_SPACE
0
ENDBLK
5
1D
100
AcDbEntity
100
AcDbBlockEnd
0
ENDSEC
0
SECTION
2
ENTITIES
0
LWPOLYLINE
5
100
100
AcDbEntity
8
0
100
AcDbPolyline
90
240
70
1
43
0.0
10
96.537259520364984
20
1.1733411665050266
10
95.359599495956147
20
1.1024773111134576
10
94.182359984253424
20
1.0329188930516753
10
93.005534463096723
20
0.96467977894270585
10
91.829116579772275
20
0.89777330548933609
10
90.653100146456865
20
0.83221227664722452
10
89.477479135636372
20
0.7680089607492574
10
88.302247675498762
20
0.70517508757792602
10
87.127400045300973
20
0.64372184538234434
10
85.952930670709691
20
0.58365987783620921
10
84.778834119115416
20
0.52499928093288228
10
83.605105094919708
20
0.4677495998134637
10
82.431738434795037
20
0.41191982552350914
10
81.258729102916959
20
0.35751839169375643
10
80.086072186168025
20
0.30455317113990216
10
78.913762889313148
20
0.25303147237623363
10
77.741796530145535
20
0.20296003603748031
10
76.570168534602999
20
0.15434503120297052
10
75.398874431853812
20
0.1071920516167485
10
74.22790984935132
20
0.061506111796905266
10
73.057270507856757
20
0.017291643026933201
10
71.886952216429435
20
-0.025447510778592586
10
70.716950867383304
20
-0.066708097342186717
10
69.547262431209106
20
-0.10648746043421697
10
68.377882951460961
20
-0.14478354443565045
10
67.208808539606338
20
-0.18159489906274279
10
66.040035369838392
20
-0.21692068426436867
10
64.871559673849049
20
-0.25076067530347607
10
63.703377735561624
20
-0.28311526803487613
10
62.535485885821686
20
-0.31398548439254298
10
61.367880497044197
20
-0.34337297810052764
10
60.200557977815166
20
-0.37128004062256775
10
59.033514767446462
20
-0.39770960736667971
10
57.866747330481076
20
-0.42266526416219086
10
56.700252151146898
20
-0.44615125402796635
10
55.534025727756848
20
-0.4681724842520732
10
54.368064567052308
20
-0.48873453380464421
10
53.202365178487554
20
-0.50784366110741608
10
52.036924068451711
20
-0.52550681218530015
10
50.871737734425167
20
-0.54173162922731466
10
49.70680265906708
20
-0.55652645958646885
10
48.542115304229618
20
-0.56990036525058385
10
47.377672104895332
20
-0.58186313281871604
10
46.213469463032695
20
-0.5924252840207147
10
45.049503741365058
20
-0.60159808682067217
10
43.885771257047672
20
-0.60939356714851867
10
42.72226827524689
20
-0.61582452130787746
10
41.55899100261523
20
-0.62090452911255278
10
40.395935580655475
20
-0.62464796780869414
10
39.233098078966066
20
-0.62707002684488311
10
38.070474488359793
20
-0.62818672355812533
10
36.908060713846709
20
-0.62801491985003899
10
35.745852567471353
20
-0.62657233993461992
10
34.583845760993754
20
-0.62387758924673742
10
33.422035898402143
20
-0.61995017460926083
10
32.26041846824468
20
-0.61481052576633388
10
31.098988835765972
20
-0.60848001840124044
10
29.937742234832481
20
-0.60098099876926325
10
28.77667375963016
20
-0.59233681008955896
10
27.615778356114653
20
-0.58257182085523107
10
26.455050813193843
20
-0.57171145523777533
10
25.294485753618929
20
-0.55978222578138725
10
24.134077624558827
20
-0.54681176860410052
10
22.973820687829196
20
-0.53282888134734918
10
21.813709009744507
20
-0.51786356414310153
10
20.653736450557929
20
-0.50194706389921162
10
19.493896653449809
20
-0.48511192223934074
10
18.334183033020722
20
-0.46739202747449221
10
17.174588763240195
20
-0.44882267102974521
10
16.015106764795711
20
-0.42944060880298535
10
14.855729691780368
20
-0.40928412799360575
10
13.696449917649121
20
-0.38839312000944176
10
12.537259520364996
20
-0.36680916014143999
10
11.387596914383398
20
-0.34325371352158546
10
10.238096903347742
20
-0.31645065334318156
10
9.0887387199230751
20
-0.28644786884810897
10
7.9395007663143868
20
-0.25329518764191788
10
6.7903605713759685
20
-0.21704449607893334
10
5.6412947443839734
20
-0.177749872735328
10
4.4922789250396011
20
-0.13546773671451684
10
3.3432877292027019
20
-0.090257012808079018
10
2.1942946897760596
20
-0.042179315866570921
10
1.0452721920653563
20
0.008700842869570069
10
-0.10380859717334268
20
0.062315824254562668
10
-1.2529778079231946
20
0.11859460074136158
10
-2.4022669534212149
20
0.17746246241777688
10
-3.5517090262852902
20
0.2388406842462043
10
-4.7013386057821993
20
0.30264614814998231
10
-5.8511919780618182
20
0.36879091232512234
10
-7.0013072715473346
20
0.43718171859240984
10
-8.1517246101234662
20
0.50771942665892145
10
-9.3024862873286018
20
0.58029836172048843
10
-10.453636965465476
20
0.65480555876165836
10
-11.605223904441537
20
0.73111988300185349
10
-12.757297226294169
20
0.80911100093036459
10
-13.909910222827705
20
0.88863816990493716
10
-15.063119715699873
20
0.96954880585633396
10
-16.216986480800472
20
1.0516767775387801
10
-17.371575752083896
20
1.1348403609939726
10
-18.526957824465036
20
1.2188397680158733
10
-19.683208781421868
20
1.3034541353160876
10
-20.840411381244429
20
1.388437823683772
10
-21.998656147446134
20
1.4735158240160373
10
-23.158042725265325
20
1.5583779924495502
10
-24.318681589870632
20
1.6426717286267518
10
-25.48069622674025
20
1.7259925511941689
10
-26.64422595711363
20
1.8078717829958166
10
-27.80942966222306
20
1.8877601843139158
10
-28.976490788050924
20
1.9650057770655882
10
-30.145624221703613
20
2.0388231248588169
10
-31.317085985367513
20
2.1082496683114376
10
-32.491187321179737
20
2.1720817569990136
10
-33.66831590571406
20
2.2287774989196159
10
-34.848969229734038
20
2.2763026157898651
10
-36.033810046588393
20
2.3118722124857012
10
-37.223765091370808
20
2.3314870674111434
10
-38.420217796471555
20
2.3290204484067139
10
-39.625436460639108
20
2.2941709344831565
10
-40.843734278681282
20
2.2068638574713288
10
-42.08597700869862
20
2.0152731339343695
10
-43.462740479635009
20
1.1733411665050277
10
-42.50617061723807
20
-0.13039635647986936
10
-41.415080013922072
20
-0.77407041335016213
10
-40.300044498630911
20
-1.3037386014731007
10
-39.171929829465135
20
-1.7712270042855469
10
-38.035049201232539
20
-2.1966102899566433
10
-36.891670912681626
20
-2.5901898794756448
10
-35.743178396202651
20
-2.958092505002031
10
-34.590498386889294
20
-3.304317388131782
10
-33.434293638090281
20
-3.6316494239889572
10
-32.275061640569177
20
-3.942122890856937
10
-31.113190070899741
20
-4.2372796807376503
10
-29.948990171219094
20
-4.5183234440555324
10
-28.782717963713619
20
-4.7862167401927476
10
-27.614588335489721
20
-5.0417450055413155
10
-26.444784732529769
20
-5.2855602181841128
10
-25.273466036066058
20
-5.5182116178389169
10
-24.100771567338025
20
-5.7401678816617174
10
-22.926824811823888
20
-5.9518334910059796
10
-21.751736244692257
20
-6.1535610462292709
10
-20.575605511181486
20
-6.3456606911949196
10
-19.398523134804982
20
-6.5284074350058159
10
-18.220571873852794
20
-6.7020469168728045
10
-17.041827811802875
20
-6.8668000000842797
10
-15.86236124357014
20
-7.0228664728462782
10
-14.68223740310898
20
-7.1704280591171017
10
-13.50151706630918
20
-7.3096508901425299
10
-12.320257054828478
20
-7.4406875499917984
10
-11.138510660471205
20
-7.5636787813071562
10
-9.9563280052747505
20
-7.6787549175993197
10
-8.7737563491465522
20
-7.7860370936488668
10
-7.590840354389341
20
-7.8856382744712441
10
-6.4076223145415367
20
-7.9776641348706221
10
-5.2241423534878173
20
-8.0622138151399252
10
-4.040438599651397
20
-8.1393805734583697
10
-2.8565473391821339
20
-8.2092523516299405
10
-1.6725031513468291
20
-8.2719122677313042
10
-0.48833902876333823
20
-8.3274390468000625
10
0.69591351533128787
20
-8.3759073987484012
10
1.8802243509539274
20
-8.4173883511233729
10
3.0645646448606101
20
-8.4519495430707536
10
4.2489067823570448
20
-8.4796554858309818
10
5.4332242963459976
20
-8.5005677942546161
10
6.6174918026873453
20
-8.5147453931332322
10
7.801684941082252
20
-8.5222447015702496
10
8.9857803208069065
20
-8.523119798141833
10
10.169755470715582
20
-8.5174225692023171
10
11.353588793013243
20
-8.5052028423572459
10
12.537259520364996
20
-8.4865085068485016
10
13.711402456414197
20
-8.462764053153343
10
14.885456015616283
20
-8.4353915636876948
10
16.059412275934264
20
-8.4044326137425127
10
17.233263610823126
20
-8.3699270947256323
10
18.407002674375921
20
-8.3319132938364397
10
19.580622387280179
20
-8.2904279669728247
10
20.754115923505381
20
-8.2455064055598708
10
21.927476697652139
20
-8.197182497908571
10
23.100698352900775
20
-8.1454887856425948
10
24.273774749504486
20
-8.0904565156697963
10
25.44669995377771
20
-8.0321156881221381
10
26.619468227536132
20
-7.9704951006410596
10
27.792074017948654
20
-7.9056223893445923
10
28.964511947766507
20
-7.8375240667769273
10
30.136776805897505
20
-7.7662255571095695
10
31.308863538297345
20
-7.691751228835618
10
32.480767239151966
20
-7.6141244251742277
10
33.652483142327853
20
-7.5333674923806839
10
34.824006613069571
20
-7.4495018061382678
10
35.995333139925293
20
-7.3625477961911283
10
37.166458326883273
20
-7.272524969362129
10
38.337377885703532
20
-7.1794519310861391
10
39.508087628430587
20
-7.0833464055771609
10
40.678583460074513
20
-6.9842252547368062
10
41.848861371448066
20
-6.882104495902083
10
43.01891743214977
20
-6.7769993185215727
10
44.188747783682309
20
-6.6689240998414281
10
45.358348632698267
20
-6.5578924196754436
10
46.527716244363972
20
-6.4439170743272536
10
47.696846935834657
20
-6.3270100897267838
10
48.865737069833699
20
-6.2071827338381267
10
50.034383048329559
20
-6.0844455283911305
10
51.202781306304814
20
-5.9588082599848526
10
52.370928305611613
20
-5.8302799906071137
10
53.538820528909085
20
-5.6988690676109242
10
54.706454473677667
20
-5.5645831331853017
10
55.87382664630649
20
-5.4274291333551536
10
57.040933556249755
20
-5.2874133265422252
10
58.207771710248899
20
-5.1445412917166431
10
59.374337606616834
20
-4.9988179361664766
10
60.540627729581473
20
-4.8502475029105874
10
61.706638543685784
20
-4.6988335777783057
10
62.872366488241624
20
-4.5445790961776487
10
64.037807971835036
20
-4.3874863495723515
10
65.202959366880947
20
-4.2275569916864688
10
66.367817004224904
20
-4.0647920444539718
10
67.532377167790315
20
-3.8991919037296707
10
68.696636089269049
20
-3.7307563447765157
10
69.860589942854205
20
-3.5594845275433817
10
71.024234840013335
20
-3.3853750017465245
10
72.187566824300546
20
-3.208425711766909
10
73.350581866206568
20
-3.0286340013749005
10
74.513275858045333
20
-2.8459966182930216
10
75.675644608876155
20
-2.6605097186066926
10
76.837683839460311
20
-2.4721688710324226
10
77.999389177251118
20
-2.2809690610521152
10
79.16075615141682
20
-2.0869046949217336
10
80.321780187895286
20
-1.889969603561946
10
81.482456604479694
20
-1.6901570463380209
10
82.642780605934959
20
-1.4874597147356752
10
83.802747279143617
20
-1.2818697359392115
10
84.962351588281223
20
-1.0733786763178899
10
86.121588370020305
20
-0.86197754482615219
10
87.280452328762337
20
-0.6476567963229054
10
88.438938031897891
20
-0.43040633481478463
10
89.597039905093595
20
-0.21021551662809224
10
90.75475222760646
20
0.012926846486289167
10
91.912069127624392
20
0.23903248431084323
10
93.068984577633245
20
0.4681136651784602
10
94.225492389809887
20
0.70018319304479826
10
95.381586211440506
20
0.9352544046126483
0
CIRCLE
5
101
100
AcDbEntity
8
0
100
AcDbCircle
10
21.362501014664304
20
-4.5475002159946598
30
0
40
1.1250000000000007
210
0
220
0
230
1
0
CIRCLE
5
102
100
AcDbEntity
8
0
100
AcDbCircle
10
-18.637313297722152
20
-2.7759615794368706
30
0
40
1.125
210
0
220
0
230
1
0
ENDSEC
0
SECTION
2
OBJECTS
0
DICTIONARY
5
C
100
AcDbDictionary
3
ACAD_GROUP
350
D
3
ACAD_MLINESTYLE
350
17
0
DICTIONARY
5
D
100
AcDbDictionary
0
DICTIONARY
5
1A
330
C
100
AcDbDictionary
0
DICTIONARY
5
17
100
AcDbDictionary
0
ENDSEC
0
EOF
