0
SECTION
2
HEADER
9
$INSUNITS
70
4
9
$ACADVER
1
AC1014
9
$HANDSEED
5
FFFF
0
ENDSEC
0
SECTION
2
TABLES
0
TABLE
2
VPORT
5
8
100
AcDbSymbolTable
0
ENDTAB
0
TABLE
2
LTYPE
5
5
100
AcDbSymbolTable
0
LTYPE
5
14
100
AcDbSymbolTableRecord
100
AcDbLinetypeTableRecord
2
BYBLOCK
70
0
0
LTYPE
5
15
100
AcDbSymbolTableRecord
100
AcDbLinetypeTableRecord
2
BYLAYER
70
0
0
LTYPE
5
16
100
AcDbSymbolTableRecord
100
AcDbLinetypeTableRecord
2
DASHED
70
0
3
Dashed __ __ __ __ __ __ __ __ __ __ __ __ __ _
72
65
73
2
40
0.75
49
0.5
74
0
49
-0.25
74
0
0
ENDTAB
0
TABLE
2
LAYER
5
2
100
AcDbSymbolTable
70
2
0
LAYER
5
50
100
AcDbSymbolTableRecord
100
AcDbLayerTableRecord
2
0
70
0
62
7
6
CONTINUOUS
0
ENDTAB
0
TABLE
2
STYLE
5
3
100
AcDbSymbolTable
70
1
0
STYLE
5
11
100
AcDbSymbolTableRecord
100
AcDbTextStyleTableRecord
2
STANDARD
70
0
0
ENDTAB
0
TABLE
2
VIEW
5
6
100
AcDbSymbolTable
70
0
0
ENDTAB
0
TABLE
2
UCS
5
7
100
AcDbSymbolTable
70
0
0
ENDTAB
0
TABLE
2
APPID
5
9
100
AcDbSymbolTable
70
2
0
APPID
5
12
100
AcDbSymbolTableRecord
100
AcDbRegAppTableRecord
2
ACAD
70
0
0
ENDTAB
0
TABLE
2
DIMSTYLE
5
A
100
AcDbSymbolTable
70
1
0
ENDTAB
0
TABLE
2
BLOCK_RECORD
5
1
100
AcDbSymbolTable
70
1
0
BLOCK_RECORD
5
1F
100
AcDbSymbolTableRecord
100
AcDbBlockTableRecord
2
*MODEL_SPACE
0
BLOCK_RECORD
5
1B
100
AcDbSymbolTableRecord
100
AcDbBlockTableRecord
2
*PAPER_SPACE
0
ENDTAB
0
ENDSEC
0
SECTION
2
BLOCKS
0
BLOCK
5
20
100
AcDbEntity
100
AcDbBlockBegin
2
*MODEL_SPACE
0
ENDBLK
5
21
100
AcDbEntity
100
AcDbBlockEnd
0
BLOCK
5
1C
100
AcDbEntity
100
AcDbBlockBegin
2
*PAPER_SPACE
0
ENDBLK
5
1D
100
AcDbEntity
100
AcDbBlockEnd
0
ENDSEC
0
SECTION
2
ENTITIES
0
POINT
5
100
100
AcDbEntity
8
0
100
AcDbPoint
10
0
20
0
30
0
0
SPLINE
5
101
100
AcDbEntity
8
0
100
AcDbSpline
70
4
71
5
72
31
73
25
74
0
42
0.000000001
43
0.0000000001
44
0.0000000001
40
0
40
0
40
0
40
0
40
0
40
0
40
0.050000000000000003
40
0.10000000000000001
40
0.15000000000000002
40
0.20000000000000001
40
0.25
40
0.29999999999999999
40
0.34999999999999998
40
0.40000000000000002
40
0.45000000000000001
40
0.5
40
0.54999999999999993
40
0.59999999999999998
40
0.65000000000000002
40
0.70000000000000007
40
0.75000000000000022
40
0.80000000000000016
40
0.8500000000000002
40
0.90000000000000024
40
0.9500000000000004
40
1
40
1
40
1
40
1
40
1
40
1
41
1
41
1
41
1
41
1
41
1
41
1
41
1
41
1
41
1
41
1
41
1
41
1
41
1
41
1
41
1
41
1
41
1
41
1
41
1
41
1
41
1
41
1
41
1
41
1
41
1
10
1.6396251821559585e-18
20
-20
30
0
10
2.5391917489259881
20
-19.999999999998831
30
0
10
7.61757524677797
20
-19.862803067179801
30
0
10
15.110952700084407
20
-19.245416869500509
30
0
10
24.356935876997809
20
-17.476527880454256
30
0
10
33.531576072272948
20
-13.104828306822075
30
0
10
39.391992305205036
20
-6.0669650945184994
30
0
10
41.315073627862908
20
3.7543231514497122
30
0
10
39.125911333689402
20
15.653540037365827
30
0
10
33.128020609141196
20
28.05301392976488
30
0
10
23.971262368331374
20
39.015933558679812
30
0
10
12.568288604956601
20
46.615682186391751
30
0
10
-1.27675647831893e-14
20
49.362919078637823
30
0
10
-12.568288604956528
20
46.615682186398004
30
0
10
-23.971262368331164
20
39.015933558690719
30
0
10
-33.128020609140876
20
28.053013929777396
30
0
10
-39.125911333689167
20
15.653540037375993
30
0
10
-41.315073627862866
20
3.7543231514535762
30
0
10
-39.391992305205093
20
-6.0669650945236064
30
0
10
-33.531576072273154
20
-13.10482830683558
30
0
10
-24.356935876997991
20
-17.476527880471025
30
0
10
-15.110952700084528
20
-19.245416869513775
30
0
10
-7.6175752467779301
20
-19.8628030671868
30
0
10
-2.539191748925973
20
-20.000000000001169
30
0
10
1.6396251821559585e-18
20
-20
30
0
0
LINE
5
102
100
AcDbEntity
8
0
100
AcDbLine
10
1.6396251821559585e-18
20
-20
30
0
11
-5.1792739404923426e-18
21
48.000000000000007
31
0
0
SPLINE
5
103
100
AcDbEntity
8
0
100
AcDbSpline
70
4
71
5
72
31
73
25
74
0
42
0.000000001
43
0.0000000001
44
0.0000000001
40
0
40
0
40
0
40
0
40
0
40
0
40
0.050000000000000003
40
0.10000000000000001
40
0.15000000000000002
40
0.20000000000000001
40
0.25
40
0.29999999999999999
40
0.34999999999999998
40
0.40000000000000002
40
0.45000000000000001
40
0.5
40
0.54999999999999993
40
0.59999999999999998
40
0.65000000000000002
40
0.70000000000000007
40
0.75000000000000022
40
0.80000000000000016
40
0.8500000000000002
40
0.90000000000000024
40
0.9500000000000004
40
1
40
1
40
1
40
1
40
1
40
1
41
1
41
1
41
1
41
1
41
1
41
1
41
1
41
1
41
1
41
1
41
1
41
1
41
1
41
1
41
1
41
1
41
1
41
1
41
1
41
1
41
1
41
1
41
1
41
1
41
1
10
1.238213308435177e-18
20
-16
30
0
10
2.2894844369801319
20
-15.999999999999069
30
0
10
6.8684533109404029
20
-15.906727511935268
30
0
10
13.624710937038147
20
-15.487001315653243
30
0
10
21.95988032944647
20
-14.232429817334877
30
0
10
30.226749574548911
20
-10.843209704416044
30
0
10
35.501796403771969
20
-5.0205071071921061
30
0
10
37.22505756477409
20
3.4738300684935131
30
0
10
35.244468175391674
20
14.048137279584925
30
0
10
29.836238433902373
20
25.245646513082693
30
0
10
21.58662801410113
20
35.245428954729576
30
0
10
11.317168220300449
20
42.219828268777697
30
0
10
-1.4849232954361469e-14
20
44.749336653847777
30
0
10
-11.317168220300376
20
42.219828268783004
30
0
10
-21.586628014100924
20
35.245428954738699
30
0
10
-29.836238433902071
20
25.245646513093078
30
0
10
-35.244468175391432
20
14.048137279593362
30
0
10
-37.225057564774019
20
3.4738300684968326
30
0
10
-35.501796403772076
20
-5.0205071071959928
30
0
10
-30.226749574549146
20
-10.843209704426664
30
0
10
-21.959880329446669
20
-14.232429817348189
30
0
10
-13.624710937038266
20
-15.487001315663809
30
0
10
-6.8684533109403691
20
-15.906727511940851
30
0
10
-2.2894844369801195
20
-16.000000000000931
30
0
10
1.238213308435177e-18
20
-16
30
0
0
CIRCLE
5
104
100
AcDbEntity
8
0
100
AcDbCircle
10
0
20
-18.000000268220898
30
0
40
1.05
210
0
220
0
230
1
0
CIRCLE
5
105
100
AcDbEntity
8
0
100
AcDbCircle
10
24.000000357627872
20
35.000000521540642
30
0
40
1.0500000148999999
210
0
220
0
230
1
0
CIRCLE
5
106
100
AcDbEntity
8
0
100
AcDbCircle
10
-24.000000357627872
20
35.000000521540642
30
0
40
1.0500000148999999
210
0
220
0
230
1
0
LWPOLYLINE
5
107
100
AcDbEntity
8
0
100
AcDbPolyline
90
8
70
1
43
0.0
10
-23.5
20
38.499999858438969
10
-23.5
20
48.000000000000007
10
23.5
20
48.000000000000007
10
-23.5
20
48.000000000000007
10
-23.5
20
58.000000000000007
10
23.5
20
58.000000000000007
10
23.5
20
48.000000000000007
10
23.5
20
38.499999858438969
0
ENDSEC
0
SECTION
2
OBJECTS
0
DICTIONARY
5
C
100
AcDbDictionary
3
ACAD_GROUP
350
D
3
ACAD_MLINESTYLE
350
17
0
DICTIONARY
5
D
100
AcDbDictionary
0
DICTIONARY
5
1A
330
C
100
AcDbDictionary
0
DICTIONARY
5
17
100
AcDbDictionary
0
ENDSEC
0
EOF
